<?xml version="1.0" encoding="utf-8"?>
<!-- Generator: Adobe Illustrator 26.2.1, SVG Export Plug-In . SVG Version: 6.00 Build 0)  -->
<svg version="1.1" id="图层_1" xmlns="http://www.w3.org/2000/svg" xmlns:xlink="http://www.w3.org/1999/xlink" x="0px" y="0px"
	 viewBox="0 0 512 512" style="enable-background:new 0 0 512 512;" xml:space="preserve">
<style type="text/css">
	.st0{fill:#FFFFFF;}
</style>
<g>
	<path class="st0" d="M151,170.8l-31.9-31.9c-5.5-5.5-5.5-14.3,0-19.8s14.3-5.5,19.8,0l31.9,31.9C200.1,117.9,220,76.1,226,30
		c-23.1,3-45.1,9.5-65.4,18.9l12.8,12.8c5.5,5.5,5.5,14.3,0,19.8s-14.3,5.5-19.8,0l-18.7-18.7c-29.1,18.3-53.8,43-72.1,72.1
		l18.7,18.7c5.5,5.5,5.5,14.3,0,19.8s-14.3,5.5-19.8,0l-12.8-12.8C39.5,181,33,203,30,226C76.1,220,117.8,200.1,151,170.8z"/>
	<path class="st0" d="M481.8,224.5c-9-64.7-45-120.7-96.4-156.2c-2.2,9.6-3.4,19.5-3.4,29.7C382,159.4,424.6,210.9,481.8,224.5z"/>
	<path class="st0" d="M194.2,429.5c-5.5,5.5-14.3,5.5-19.8,0s-5.5-14.3,0-19.8l18.8-18.8c-18.3-29.1-43-53.8-72.1-72.1l-18.8,18.8
		c-5.5,5.5-14.3,5.5-19.8,0l0,0c-5.5-5.5-5.5-14.3,0-19.8l12.9-13C75,295.5,53,289,30,286c6,46.1,25.9,87.9,55.2,121.1l31.8-31.8
		c5.5-5.5,14.3-5.5,19.8,0l0,0c5.5,5.5,5.5,14.3,0,19.8L105,426.8C138.2,456.1,179.9,476,226,482c-3-23.1-9.5-45.1-18.9-65.4
		L194.2,429.5z"/>
	<path class="st0" d="M354,98c0-2.2,0.1-4.3,0.1-6.5C310.9,133,284,191.4,284,256c0,78.5,39.6,147.7,100,188.7
		c60.4-41,100-110.2,100-188.7c0-0.8,0-1.6,0-2.5C410.1,240.3,354,175.7,354,98z"/>
	<path class="st0" d="M256,256c0-83.4,39.9-157.4,101.6-204.2C327,36.6,292.5,28,256,28c-0.5,0-1,0-1.5,0
		c-5.9,54.6-29.1,104-63.8,142.8c-6.2,6.9-12.9,13.6-19.8,19.8c-38.8,34.8-88.2,57.9-142.8,63.8c0,0.5,0,1,0,1.5c0,0.5,0,1,0,1.5
		c31.5,3.4,61.3,12.6,88.3,26.4c8.6,4.4,17,9.3,25,14.6c28.6,19,53.2,43.5,72.1,72.1c5.3,8,10.2,16.4,14.6,25
		c13.8,27,23,56.8,26.4,88.3c0.5,0,1,0,1.5,0c36.5,0,71-8.6,101.6-23.8C295.9,413.4,256,339.4,256,256z"/>
	<path class="st0" d="M510.5,228c-7.8-71.8-45.3-134.7-100-176.1c-5-3.8-10.1-7.4-15.3-10.8c-3.6-2.4-7.3-4.6-11.1-6.8
		c-4.3-2.5-8.8-4.9-13.2-7.1C336.2,9.8,297.3,0,256,0c-9.5,0-18.8,0.5-28,1.5c-31.5,3.4-61.3,12.6-88.3,26.4
		c-8.6,4.4-17,9.3-25,14.6c-28.6,19-53.2,43.5-72.1,72.1c-5.3,8-10.2,16.4-14.6,25c-13.8,27-23,56.8-26.4,88.3
		c-1,9.2-1.5,18.6-1.5,28s0.5,18.8,1.5,28c5.9,54.6,29.1,104,63.8,142.8c6.2,7,12.8,13.6,19.8,19.8c38.8,34.8,88.2,57.9,142.8,63.8
		c9.2,1,18.6,1.5,28,1.5c46.6,0,90.3-12.5,128-34.3c9.2-5.3,18-11.2,26.4-17.6C472.1,413.4,512,339.4,512,256
		C512,246.5,511.5,237.2,510.5,228z M385.4,68.3c51.4,35.5,87.4,91.5,96.4,156.2C424.6,210.9,382,159.4,382,98
		C382,87.8,383.2,77.8,385.4,68.3z M61.7,173.4c5.5,5.5,14.3,5.5,19.8,0s5.5-14.3,0-19.8l-18.7-18.7c18.3-29.1,43-53.8,72.1-72.1
		l18.7,18.7c5.5,5.5,14.3,5.5,19.8,0s5.5-14.3,0-19.8l-12.8-12.8C181,39.5,203,33,226,30c-6.1,46.1-25.9,87.9-55.2,121.1l-31.9-31.9
		c-5.5-5.5-14.3-5.5-19.8,0s-5.5,14.3,0,19.8l31.9,31.9C117.9,200.1,76.1,220,30,226c3-23.1,9.5-45.1,18.9-65.4L61.7,173.4z
		 M105,426.8l31.8-31.8c5.5-5.5,5.5-14.3,0-19.8l0,0c-5.5-5.5-14.3-5.5-19.8,0L85.2,407C55.9,373.9,36,332.1,30,286
		c23.1,3,45.1,9.5,65.4,18.9l-12.9,13c-5.5,5.5-5.5,14.3,0,19.8l0,0c5.5,5.5,14.3,5.5,19.8,0l18.8-18.8c29.1,18.3,53.8,43,72.1,72.1
		l-18.8,18.8c-5.5,5.5-5.5,14.3,0,19.8s14.3,5.5,19.8,0l12.9-13C216.5,437,223,459,226,482C179.9,476,138.1,456.1,105,426.8z
		 M256,484c-0.5,0-1,0-1.5,0c-3.4-31.5-12.6-61.3-26.4-88.3c-4.4-8.6-9.3-17-14.6-25c-19-28.6-43.5-53.1-72.1-72.1
		c-8-5.3-16.4-10.2-25-14.6c-27-13.8-56.8-23-88.3-26.4c0-0.5,0-1,0-1.5s0-1,0-1.5c54.6-5.9,104-29.1,142.8-63.8
		c6.9-6.2,13.6-12.9,19.8-19.8c34.8-38.8,57.9-88.2,63.8-142.8c0.5,0,1,0,1.5,0c36.5,0,71,8.6,101.6,23.8
		C295.9,98.6,256,172.6,256,256s39.9,157.4,101.6,204.2C327,475.4,292.5,484,256,484z M384,444.7c-60.4-41-100-110.2-100-188.7
		c0-64.6,26.9-123,70.1-164.5c-0.1,2.2-0.1,4.3-0.1,6.5c0,77.7,56.1,142.3,130,155.5c0,0.8,0,1.6,0,2.5
		C484,334.5,444.4,403.7,384,444.7z"/>
</g>
</svg>
